<svg xmlns:dc="http://purl.org/dc/elements/1.1/" xmlns:cc="http://creativecommons.org/ns#" xmlns:rdf="http://www.w3.org/1999/02/22-rdf-syntax-ns#" xmlns:svg="http://www.w3.org/2000/svg" xmlns="http://www.w3.org/2000/svg" xmlns:sodipodi="http://sodipodi.sourceforge.net/DTD/sodipodi-0.dtd" xmlns:inkscape="http://www.inkscape.org/namespaces/inkscape" version="1.1" x="0px" y="0px" viewBox="0 0 100 125"><g transform="translate(0,-952.36218)"><g transform="translate(-1877,1652)" style="" fill="#000000"><path style="text-indent:0;text-transform:none;direction:ltr;block-progression:tb;baseline-shift:baseline;color:#000000;enable-background:accumulate;" d="m 1928.9938,-684.63801 c -3.8607,0 -6.9999,3.1393 -6.9999,7.00001 l 0,31.71887 -2.0937,-4.1875 c -1.2002,-2.34851 -3.204,-4.74106 -5.4374,-5.3437 -1.8852,-0.51951 -3.6117,0.1514 -4.9686,0.9375 -1.7201,1.01 -2.8443,2.44943 -3.2812,3.9062 -0.4998,2.04177 -0.08,4.09807 0.8437,6.3437 4.5706,11.22205 11.5625,24.5567 19.1871,33.28125 0.186,0.21392 0.4665,0.34252 0.75,0.34385 l 26.9995,0 c 0.2145,-0.007 0.4262,-0.0847 0.5937,-0.21875 2.6256,-1.9451 4.8955,-5.44973 6.7811,-9.6875 1.8857,-4.23777 3.4013,-9.18526 4.0937,-14 0.719,-4.99936 0.7954,-9.47138 -0.25,-13.15625 -1.0454,-3.68487 -3.3851,-6.50336 -7.0936,-6.9375 -1.2956,-0.0111 -2.4225,0.0798 -3.4374,0.65625 -0.3446,-1.5306 -1.0452,-2.80028 -2.0312,-3.5 -1.2783,-0.90713 -2.6937,-1.17264 -3.6875,-1.15625 -1.3816,0.0231 -2.4956,0.75926 -3.4686,1.78125 -0.4051,-1.10333 -0.9675,-2.02548 -1.75,-2.59375 -1.2577,-0.91335 -2.6892,-1.1875 -3.7499,-1.1875 -1.4059,0 -2.8219,0.53119 -4,1.40625 l 0,-18.40637 c -0.087,-4.54345 -3.7489,-7.02591 -6.9998,-7.00006 z m 0,2 c 2.7872,0 4.9999,2.2127 4.9999,5.00001 l 0,21.00012 c 0.01,0.44804 0.3532,0.86809 0.7915,0.96149 0.4382,0.0934 0.9252,-0.14917 1.1147,-0.55524 0.6553,-1.36245 2.5964,-2.40625 4.0937,-2.40625 0.6771,0 1.7546,0.1946 2.5624,0.78125 0.8078,0.58665 1.4375,1.49059 1.4375,3.21875 -0.01,0.45324 0.3344,0.88789 0.7762,0.98929 0.4418,0.1014 0.9383,-0.14104 1.13,-0.55179 0.9064,-1.81327 1.7584,-2.41462 3.1249,-2.4375 0.5159,-0.009 1.6245,0.18216 2.4687,0.78125 0.8443,0.59909 1.5,1.50961 1.5,3.21875 0.01,0.77372 1.1255,1.25059 1.6875,0.71875 0.1938,-0.1799 0.7268,-0.43203 1.3749,-0.5625 0.6482,-0.13047 1.389,-0.15625 1.9375,-0.15625 2.7705,0.37893 4.3778,2.28471 5.2812,5.46875 0.9179,3.23567 0.9316,7.69081 0.2187,12.3125 -0.7129,4.62169 -2.1325,9.44375 -3.9374,13.5 -1.7587,3.95228 -3.9295,7.1036 -5.9999,8.71875 l -26.062,0 c -7.2585,-8.42853 -14.1055,-21.43269 -18.5621,-32.375 -0.948,-2.43995 -1.1101,-3.99966 -0.8125,-5.0625 0.5045,-1.3951 1.4517,-2.20548 2.4374,-2.74995 1.1218,-0.63985 2.2267,-1.00392 3.375,-0.6875 2.3401,1.13644 3.1938,2.56008 4.1874,4.3437 l 3.9687,7.96875 c 0.1917,0.41075 0.6881,0.65319 1.1299,0.55179 0.4418,-0.1014 0.7829,-0.53605 0.7763,-0.98929 l 0,-36.00012 c 0,-2.78731 2.2126,-5.00001 4.9999,-5.00001 z" fill="#000000" fill-opacity="1" stroke="none" marker="none" visibility="visible" display="inline" overflow="visible"/><path style="text-indent:0;text-transform:none;direction:ltr;block-progression:tb;baseline-shift:baseline;color:#000000;enable-background:accumulate;" d="m 1888,-678.63934 c -4e-4,-0.34939 0.1416,-0.58411 0.2812,-0.71879 l 9,-9.00057 c 0.3958,-0.3879 1.0539,-0.36101 1.4221,0.0154 0.3682,0.37643 0.3607,1.05404 -0.016,1.42217 l -7.2813,7.28173 21.5938,0 c 0.5522,0 1,0.44773 1,1.00006 0,0.55234 -0.4478,1.00007 -1,1.00007 l -21.5938,0 7.2813,7.28171 c 0.3765,0.36813 0.384,1.04574 0.016,1.42217 -0.3683,0.37642 -1.0107,0.41112 -1.4221,0.0154 l -9,-9.00057 c -0.2452,-0.23684 -0.2697,-0.38994 -0.2812,-0.71878 z" fill="#000000" fill-opacity="1" stroke="none" marker="none" visibility="visible" display="inline" overflow="visible"/></g></g></svg>